HIERARCHY
ROOT Hips
{
  OFFSET 40.9059 100.744 -290.252
  CHANNELS 6 Xposition Yposition Zposition Zrotation Xrotation Yrotation
  JOINT ToSpine
  {
    OFFSET -0.0105055 1.38907 -7.13956
    CHANNELS 3 Zrotation Xrotation Yrotation
    JOINT Spine
    {
      OFFSET 0.0105055 10 1
      CHANNELS 3 Zrotation Xrotation Yrotation
      JOINT Spine1
      {
        OFFSET 0 12 1.60637
        CHANNELS 3 Zrotation Xrotation Yrotation
        JOINT Neck
        {
          OFFSET 0 27 2.26658
          CHANNELS 3 Zrotation Xrotation Yrotation
          JOINT Head
          {
            OFFSET 0 9 2.12705
            CHANNELS 3 Zrotation Xrotation Yrotation
            End Site
            {
              OFFSET 0 11 2
            }
          }
        }
        JOINT LeftShoulder
        {
          OFFSET 8 19.6109 2.86452
          CHANNELS 3 Zrotation Xrotation Yrotation
          JOINT LeftArm
          {
            OFFSET 12 1 0.681055
            CHANNELS 3 Zrotation Xrotation Yrotation
            JOINT LeftForeArm
            {
              OFFSET 19 0 -1.52608
              CHANNELS 3 Zrotation Xrotation Yrotation
              JOINT LeftHand
              {
                OFFSET 23 0 0
                CHANNELS 3 Zrotation Xrotation Yrotation
                End Site
                {
                  OFFSET 10 0 0
                }
              }
            }
          }
        }
        JOINT RightShoulder
        {
          OFFSET -8 19.6109 2.86452
          CHANNELS 3 Zrotation Xrotation Yrotation
          JOINT RightArm
          {
            OFFSET -12 1 0.681055
            CHANNELS 3 Zrotation Xrotation Yrotation
            JOINT RightForeArm
            {
              OFFSET -19 0 -1.52608
              CHANNELS 3 Zrotation Xrotation Yrotation
              JOINT RightHand
              {
                OFFSET -23 0 0
                CHANNELS 3 Zrotation Xrotation Yrotation
                End Site
                {
                  OFFSET -10 0 0
                }
              }
            }
          }
        }
      }
    }
  }
  JOINT LeftUpLeg
  {
    OFFSET 9 -7.17245 0
    CHANNELS 3 Zrotation Xrotation Yrotation
    JOINT LeftLeg
    {
      OFFSET 0 -44.1113 0
      CHANNELS 3 Zrotation Xrotation Yrotation
      JOINT LeftFoot
      {
        OFFSET 0 -36.1829 0
        CHANNELS 3 Zrotation Xrotation Yrotation
        JOINT LeftToeBase
        {
          OFFSET 0 -4.84184 13
          CHANNELS 3 Zrotation Xrotation Yrotation
          End Site
          {
            OFFSET 0 1 6
          }
        }
      }
    }
  }
  JOINT RightUpLeg
  {
    OFFSET -9 -7.17245 0
    CHANNELS 3 Zrotation Xrotation Yrotation
    JOINT RightLeg
    {
      OFFSET 0 -44.0551 0
      CHANNELS 3 Zrotation Xrotation Yrotation
      JOINT RightFoot
      {
        OFFSET 0 -36.1469 0
        CHANNELS 3 Zrotation Xrotation Yrotation
        JOINT RightToeBase
        {
          OFFSET 0 -4.92256 13
          CHANNELS 3 Zrotation Xrotation Yrotation
          End Site
          {
            OFFSET 0 1 6
          }
        }
      }
    }
  }
}
MOTION
Frames:	15
Frame Time:	0.0333333
36.0886 97.5244 4.37151 1.89721 -5.88672 10.6271 0 0 0 3.81879 4.66415 1.51191 -7.79092 4.88234 2.7084 8.1858 5.7688 1.00477 -0.295281 -3.65848 3.91026 -33.4868 3.26406 -4.7401 -34.0307 15.3978 -17.7228 -3.7842 -11.4784 -2.74151 -8.8404 0.26448 -3.42045 26.6838 6.92063 17.3733 50.2906 7.80729 -2.78072 1.12526 -1.47922 14.7009 2.63052 0.101198 4.40547 -9.13511 -0.808269 3.50896 -3.45738 19.6294 -5.43845 11.4098 -13.0662 1.31094 0.568817 3.90005 -3.02454 -6.65749 -10.249 1.58413 -7.87096e-009 58.8914 -2.57979 -24.1247 -5.09153 -1.08871 4.88956 -19.0347 -5.70924 
36.7135 97.7427 7.1929 1.07163 -5.54901 14.0489 0 0 0 2.89185 4.9988 0.635786 -6.16122 3.77436 1.40779 9.96382 6.30333 0.470733 -0.818938 -3.06139 4.14259 -32.134 3.36682 -5.30028 -33.2803 15.8381 -21.7956 -4.11322 -13.1816 -2.26617 -8.09356 0.229781 -3.24705 26.4659 6.30074 15.6559 51.087 8.23394 -4.29095 1.39877 -1.65721 14.2938 2.63518 0.0952799 4.14075 -8.38012 1.30923 3.56538 -2.13155 18.7832 -9.17813 10.8494 -13.5291 1.29071 0.60894 4.04005 -3.19242 -4.50475 -13.2242 4.39774 3.98111e-007 53.1744 -7.00498 -23.7672 -9.04079 -1.90627 4.71114 -17.9899 -4.21875 
37.2214 97.4957 10.1992 0.0694175 -5.29026 18.3291 0 0 0 0.74279 4.85654 -0.552776 -2.52963 3.66268 -0.576168 10.7728 5.50354 0.182658 -1.43371 -2.37223 4.19056 -30.8005 3.30891 -5.45981 -33.9466 14.7328 -25.5347 -3.78401 -11.3852 -2.76366 -8.41387 0.209102 -2.84214 26.1161 6.40699 16.1731 51.8356 6.49555 -6.57768 1.20451 -1.50351 14.1987 3.24664 0.112439 3.96592 -6.39173 3.09792 4.72156 -2.08361 19.0042 -14.0707 13.7162 -14.9925 1.81337 0.771751 2.21651 -3.5574 -2.37878 -14.9876 5.09728 -1.87235e-007 44.4125 -10.4763 -27.9428 -8.36147 -2.08378 4.32578 -16.7562 -7.55124 
38.0776 97.6285 13.2581 -0.770522 -5.07939 22.882 0 0 0 -0.103978 4.77766 -1.6586 -0.583714 3.43844 -1.94072 12.756 5.10268 -0.823638 -2.11828 -2.52369 3.96806 -28.5041 3.40711 -6.32484 -35.3352 14.4432 -28.9612 -3.61766 -10.9413 -3.4836 -8.86416 0.235072 -3.03213 26.6145 6.19805 15.2676 52.1575 5.48688 -8.28868 1.35201 -1.88086 13.4845 3.63432 0.139066 4.38121 -4.10895 5.86785 5.9193 -2.36386 17.1496 -21.0713 13.1648 -16.5984 1.92865 0.207733 6.24705 -2.09372 -1.30342 -16.5183 4.44078 -1.57144e-008 34.9521 -11.1947 -23.0773 -4.84175 -0.989033 4.25765 -16.2875 -6.27287 
38.9837 97.2305 16.4991 -1.01849 -4.27189 27.1625 0 0 0 -2.7415 4.24658 -2.42611 2.43979 3.26251 -3.24254 14.215 4.47358 -1.83074 -3.20675 -2.68137 3.60823 -27.2077 3.49449 -6.95525 -36.0582 15.0066 -32.1636 -3.65051 -10.5699 -4.79325 -8.64642 0.249232 -3.29591 27.0105 6.0957 14.7525 52.1753 4.09691 -10.3494 1.48126 -2.75724 13.3326 3.25767 0.118373 4.16093 -2.6761 7.19328 6.59721 -2.3938 17.2755 -25.4824 15.2742 -17.2889 2.33565 1.24505 3.63505 -5.5074 -1.19215 -17.489 1.41515 -0.0478995 23.5945 -7.8953 -23.9257 0.996452 0.211132 5.13847 -20.7243 -7.80572 
40.166 96.7649 19.7799 -1.18217 -3.93248 30.8937 0 0 0 -4.40504 3.80184 -3.18111 4.41719 3.61578 -4.29937 15.6714 3.71087 -2.53126 -3.61219 -2.73325 3.38672 -25.9531 3.52611 -7.44534 -36.1407 16.2389 -35.0443 -3.87627 -11.3209 -6.48377 -6.99526 0.301866 -4.93578 27.7484 6.05911 14.2668 51.9789 3.46002 -11.4762 1.97012 -4.46924 12.3033 2.79174 0.100501 4.12262 -0.914966 9.47617 7.64391 -2.83067 16.6894 -30.8481 16.0714 -18.5088 2.6355 1.14469 3.95164 -5.15876 -1.19251 -17.7418 -2.47534 0.0933886 12.8247 -2.87943 -17.5751 1.98745 0.307261 4.49191 -17.3159 -5.99624 
41.5301 95.8693 23.3715 -0.96858 -3.82243 32.8889 0 0 0 -6.17016 3.52168 -3.24135 6.24235 3.69953 -4.58503 16.4284 3.47004 -2.83818 -3.80825 -3.29292 3.32551 -26.0823 3.57348 -7.54903 -35.5528 17.1502 -36.8831 -3.75097 -10.1691 -8.72644 -7.21099 0.280573 -4.45053 28.3519 6.13522 14.1845 51.37 1.83355 -12.9131 1.47929 -3.50146 11.8475 3.90934 0.112085 3.2833 0.300147 12.5793 8.90239 -3.31629 15.9827 -34.5002 17.4505 -19.6494 3.04484 1.10186 3.07263 -4.9233 -0.49101 -19.0306 -2.76889 0.986489 6.2926 -2.97551 -14.2255 1.89722 0.236761 4.9261 -18.7363 -3.45401 
43.0757 94.9082 26.8736 -1.03626 -3.53888 34.4236 0 0 0 -7.04984 2.74758 -3.28049 7.33797 4.0496 -4.72585 16.9465 3.24679 -3.19573 -3.78523 -3.30546 3.10581 -26.3013 3.50929 -7.28141 -36.2822 17.0218 -37.7315 -2.91162 -7.07206 -10.9547 -7.86152 0.28028 -4.07732 28.5671 6.05197 13.8436 51.1731 0.497305 -13.9235 1.25543 -3.42724 11.6523 4.88856 0.125657 2.94307 1.39782 15.6968 10.0593 -3.76746 14.6065 -36.8923 17.6182 -21.0611 3.30021 1.27528 2.85291 -5.56596 0.664851 -21.0624 -2.52093 1.50894 4.14818 -4.14792 -10.6214 1.07567 0.0999932 4.73368 -18.4072 -6.02974 
44.728 93.988 30.4258 -0.943754 -3.80638 35.2665 0 0 0 -7.31177 3.10468 -3.08757 7.87451 3.74387 -4.70092 17.364 2.79949 -2.93913 -3.69795 -2.94518 3.42789 -26.3852 3.51461 -7.27095 -37.4417 16.9807 -37.1678 -2.20151 -5.45242 -12.547 -8.50303 0.354272 -4.76287 28.4655 5.96553 13.6475 51.4236 0.887838 -13.6748 1.46729 -3.40855 9.75878 4.99672 0.139651 3.1998 2.37443 18.9965 11.0085 -4.02321 14.0223 -38.6127 19.0813 -20.9537 3.56038 1.52438 0.552669 -6.41487 2.12413 -21.9302 -1.73868 1.958 5.75704 -5.8779 -9.13971 0.59012 0.0471679 4.60304 -17.7988 -5.89656 
46.4484 94.0067 33.6141 -1.5228 -4.99262 36.4058 0 0 0 -5.57197 3.88987 -3.28911 8.00018 3.99072 -5.18754 17.3772 3.04104 -2.78633 -3.38078 -2.93022 3.55573 -26.4311 3.53109 -7.30658 -39.639 16.2551 -34.7193 -1.3036 -3.60958 -14.2154 -8.1545 0.360893 -5.05963 29.6181 6.12399 13.5478 50.4956 0.662329 -13.3957 1.37505 -2.94477 8.39358 5.12835 0.129018 2.88035 4.00268 22.9663 11.2601 -3.5762 11.3479 -39.3883 17.0651 -19.4996 2.95349 1.83685 -1.37631 -7.6915 4.23551 -21.938 0.191585 1.62005 9.19631 -2.03685 -12.8015 7.42053 0.833595 4.74542 -18.7492 -7.43645 
48.4267 94.1962 37.0708 -2.20051 -5.5278 37.7531 0 0 0 -4.27859 3.12814 -3.64134 8.65947 4.73857 -5.78184 15.3591 2.7736 -2.16201 -2.14575 -2.59043 3.23861 -27.4557 3.55409 -7.05695 -40.5563 16.1889 -33.346 -1.39717 -2.2731 -12.0701 -7.46598 0.327167 -5.01123 29.2013 5.82407 12.9085 50.4281 1.3091 -12.3698 1.53279 -2.85502 7.58623 4.11121 0.0908155 2.5298 5.07288 24.6266 10.4801 -1.91486 11.6258 -38.9303 13.606 -17.1663 2.06311 2.37786 -5.2797 -10.4496 5.63281 -23.2254 1.20518 1.06841 14.9224 -1.00333 -12.8583 10.2369 1.15657 4.4633 -17.3388 -7.03297 
50.6969 94.2534 40.7365 -2.47653 -5.80073 39.141 0 0 0 -3.58037 2.27544 -3.92427 9.12843 4.81724 -6.1801 14.2809 2.79302 -1.79776 -2.5399 -1.82879 3.34425 -27.8113 3.59357 -7.06545 -42.3052 16.7696 -31.2241 -2.59026 -4.36151 -8.11964 -7.6573 0.321525 -4.80167 28.1672 5.57056 12.6597 50.7522 2.04624 -11.4194 1.96773 -4.10888 6.48538 3.73946 0.104645 3.20477 5.71661 23.7581 9.06611 0.268273 16.7606 -37.9117 11.527 -13.1681 1.33491 2.57554 -13.1723 -13.4123 5.75816 -23.7057 -0.980518 0.940755 21.2754 -0.336097 -13.3434 10.2505 1.20219 4.50581 -17.6211 -7.53105 
52.8624 94.4902 44.2733 -2.5385 -6.22645 40.1898 0 0 0 -2.02015 2.44449 -3.81831 8.24348 3.83078 -5.8937 13.3663 3.21691 -1.78202 -3.25706 -2.09279 3.25362 -27.8547 3.67729 -7.29704 -43.9011 17.9699 -28.8374 -3.49477 -5.21227 -3.29246 -8.64621 0.295806 -3.91147 27.4806 5.53009 12.8586 51.0534 1.36632 -10.8101 1.63377 -3.1872 6.78116 4.29505 0.122335 3.26148 7.02956 20.4846 6.71159 1.00466 26.5662 -36.5004 8.28304 -8.42316 0.611011 2.90155 -14.9338 -17.13 6.16457 -22.9411 -3.02594 0.119937 26.0695 0.663596 -14.5556 6.94306 0.88776 4.19246 -16.0431 -6.85821 
54.934 94.8575 47.6298 -1.9039 -7.03913 40.6761 0 0 0 -1.00555 3.38685 -3.13606 7.60572 3.37564 -5.18154 12.2686 2.76022 -1.51608 -2.88296 -1.90408 3.03841 -28.3131 3.66424 -7.11997 -43.8025 21.1402 -27.0138 -4.86747 -8.75397 -0.00370711 -9.74438 0.306574 -3.59537 27.5275 5.74289 13.4575 50.4557 2.47959 -10.4021 2.02056 -4.81777 8.82305 4.56302 0.12135 3.04515 7.88388 16.638 3.31466 -8.662e-007 37.7077 -32.9933 4.80254 -2.48837 0.104365 2.60536 -11.7102 -13.1135 6.76821 -20.2596 -2.64447 5.93718e-009 29.0182 -0.55034 -14.8178 2.61306 0.339848 4.17369 -16.1136 -8.48233 
56.6703 95.5385 50.6642 -1.45187 -7.69756 41.445 0 0 0 0.0156912 4.52526 -2.44956 6.68436 2.85531 -4.39796 11.9394 2.57279 -1.65579 -2.97392 -2.75349 2.77622 -28.3159 3.77343 -7.43398 -44.1626 22.7823 -24.686 -5.7322 -7.57513 2.30792 -11.2064 0.36066 -3.67495 27.7499 5.93346 13.9026 49.5611 3.9173 -8.62856 2.12755 -4.41582 10.0037 4.35447 0.126556 3.3279 9.2841 10.917 3.78306 5.77339e-007 48.2781 -31.4362 -0.268132 5.46534 0.012798 1.04256 -3.37224 -3.90279 7.19159 -16.6738 -3.43151 2.26529e-008 28.5041 -1.04443 -16.0876 0.4218 0.0596094 4.30443 -16.7487 -8.29069 
